<svg class="svg-icon" style="width: 1em; height: 1em;vertical-align: middle;fill: currentColor;overflow: hidden;" viewBox="0 0 1024 1024" version="1.1" xmlns="http://www.w3.org/2000/svg"><path d="M688.872727 93.090909a23.272727 23.272727 0 0 1 0-46.545454h123.810909A164.770909 164.770909 0 0 1 977.454545 211.316364v106.123636a23.272727 23.272727 0 0 1-46.545454 0V211.316364A118.225455 118.225455 0 0 0 812.683636 93.090909H688.872727zM930.909091 688.872727a23.272727 23.272727 0 0 1 46.545454 0v123.810909A164.770909 164.770909 0 0 1 812.683636 977.454545H688.872727a23.272727 23.272727 0 0 1 0-46.545454h123.810909A118.225455 118.225455 0 0 0 930.909091 812.683636V688.872727zM317.44 930.909091a23.272727 23.272727 0 0 1 0 46.545454H211.316364A164.770909 164.770909 0 0 1 46.545455 812.683636V688.872727a23.272727 23.272727 0 0 1 46.545454 0v123.810909A118.225455 118.225455 0 0 0 211.316364 930.909091h106.123636zM93.090909 317.44a23.272727 23.272727 0 0 1-46.545454 0V211.316364A164.770909 164.770909 0 0 1 211.316364 46.545455h106.123636a23.272727 23.272727 0 0 1 0 46.545454H211.316364A118.225455 118.225455 0 0 0 93.090909 211.316364v106.123636zM488.727273 349.090909a23.272727 23.272727 0 0 1 46.545454 0v162.909091a69.818182 69.818182 0 0 1-69.818182 69.818182h-23.272727a23.272727 23.272727 0 0 1 0-46.545455h23.272727a23.272727 23.272727 0 0 0 23.272728-23.272727v-162.909091z m-186.181818 0a23.272727 23.272727 0 0 1 46.545454 0v93.090909a23.272727 23.272727 0 0 1-46.545454 0v-93.090909z m372.363636 0a23.272727 23.272727 0 0 1 46.545454 0v93.090909a23.272727 23.272727 0 0 1-46.545454 0v-93.090909zM325.748364 699.950545a23.272727 23.272727 0 1 1 31.162181-34.583272c43.054545 38.772364 94.370909 58.018909 155.089455 58.018909 60.741818 0 112.058182-19.246545 155.089455-58.018909a23.272727 23.272727 0 0 1 31.162181 34.583272c-51.688727 46.568727-114.152727 69.981091-186.251636 69.981091s-134.562909-23.412364-186.251636-69.981091z" fill="#6D7793" /></svg>