<svg width="686" height="680" viewBox="0 0 686 680" fill="none" xmlns="http://www.w3.org/2000/svg">
<g clip-path="url(#clip0_108_428)">
<path d="M506.349 590.573C502.441 584.373 494.291 582.53 488.094 586.44C481.897 590.35 480.055 598.505 483.963 604.705L510.815 647.603C514.723 653.803 522.874 655.647 529.071 651.737C535.268 647.827 537.11 639.671 533.202 633.471L506.349 590.573ZM649.322 420.713C647.479 427.807 651.667 435.068 658.757 436.911C665.847 438.755 673.104 434.565 674.946 427.472C677.124 419.093 679.022 410.659 680.641 402.113C682.204 393.622 683.432 385.188 684.325 376.754C684.883 371.28 685.33 365.694 685.553 360.053C685.888 353.964 686 348.323 686 343.184C686 248.395 647.591 162.599 585.512 100.542C523.488 38.4294 437.738 0 343 0C248.262 0 162.456 38.1502 100.321 100.039C38.2971 161.817 -2.37292e-05 247.278 -2.37292e-05 341.899C-2.37292e-05 349.216 5.97343 355.193 13.2867 355.193C20.6001 355.193 26.5735 349.216 26.5735 341.899C26.5735 254.539 61.9119 175.781 119.023 118.863C176.301 61.7776 255.464 26.5878 343 26.5878C430.369 26.5878 509.476 62.001 566.754 119.31C623.976 176.619 659.426 255.768 659.426 343.184C659.426 348.993 659.315 354.188 659.091 358.824C658.868 363.907 658.477 368.99 657.975 374.073C657.138 381.893 656.021 389.657 654.569 397.365C653.118 405.017 651.387 412.781 649.322 420.713ZM613.593 541.084C619.119 545.888 627.493 545.274 632.295 539.744C637.096 534.214 636.482 525.835 630.955 521.032C627.605 518.127 624.646 514.664 622.134 510.642C619.51 506.509 617.333 501.649 615.602 496.12C606.726 467.856 612.085 438.364 617.5 408.48C621.185 388.149 624.925 367.649 624.758 346.256C624.088 236.777 555.644 147.518 466.098 101.771C428.527 82.5563 387.103 71.0498 345.345 68.8714C303.419 66.693 261.158 74.066 222.135 92.6105C134.989 134.056 64.2008 231.079 49.4625 402.895C48.8485 410.212 54.3195 416.635 61.6328 417.25C68.9461 417.864 75.3662 412.39 75.9803 405.073C89.7695 244.262 154.249 154.332 233.468 116.629C268.415 99.9836 306.322 93.4483 344.005 95.3475C381.911 97.3025 419.65 107.859 454.04 125.398C535.491 166.956 597.682 247.669 598.296 346.312C598.408 365.303 594.891 384.63 591.429 403.788C585.4 436.967 579.482 469.699 590.257 504.051C592.658 511.76 595.84 518.686 599.692 524.83C603.6 531.03 608.289 536.448 613.593 541.084ZM76.2594 458.081C76.2594 450.708 70.2859 444.787 62.9726 444.787C55.6593 444.787 49.6858 450.764 49.6858 458.081V513.826C49.6858 521.199 55.6593 527.12 62.9726 527.12C70.2859 527.12 76.2594 521.143 76.2594 513.826V458.081ZM574.291 595.209C579.762 600.069 588.136 599.566 592.993 594.092C597.849 588.618 597.347 580.24 591.876 575.38C575.407 560.858 563.404 542.09 556.482 518.574C549.336 494.332 547.549 464.896 551.736 429.65C559.441 391.779 560.836 356.813 556.314 325.254C551.625 292.243 540.459 262.974 523.432 237.95C519.301 231.917 511.039 230.353 505.009 234.487C498.98 238.62 497.417 246.887 501.548 252.919C516.286 274.536 525.944 300.062 530.076 328.996C534.151 357.651 532.867 389.545 525.777 424.344C525.61 425.014 525.442 425.684 525.386 426.355C520.697 465.287 522.874 498.298 531.025 526.059C539.399 554.546 554.081 577.335 574.291 595.209ZM439.357 195.331C445.721 199.018 453.816 196.839 457.501 190.472C461.185 184.104 459.008 176.005 452.644 172.318C437.794 163.716 421.939 156.902 405.582 151.93C360.697 138.301 311.96 138.692 267.634 154.22C223.084 169.86 183.056 200.693 155.813 247.892C146.713 263.588 139.065 281.183 133.147 300.677C124.717 328.494 118.967 359.55 116.008 393.678C113.105 427.248 112.938 464.114 115.506 504.219C115.506 504.61 115.562 504.945 115.617 505.336L124.885 596.829C125.61 604.091 132.086 609.453 139.4 608.727C146.657 608.001 152.016 601.521 151.291 594.204L142.023 502.599V502.543C139.567 463.946 139.735 428.31 142.526 395.857C145.317 363.348 150.677 334.135 158.492 308.385C163.74 291.014 170.607 275.318 178.757 261.186C202.596 219.852 237.543 192.873 276.343 179.244C315.366 165.559 358.297 165.224 397.878 177.233C412.225 181.702 426.126 187.679 439.357 195.331ZM468.555 548.234C469.839 555.44 476.705 560.299 483.907 559.014C491.109 557.73 495.965 550.859 494.681 543.654C491.611 526.45 489.88 507.179 489.266 486.177C488.652 464.896 489.155 441.603 490.606 416.691C490.885 411.329 491.388 404.682 491.834 398.203C494.849 355.807 497.25 321.623 472.462 277.552C466.991 267.833 460.46 258.784 452.644 250.518C444.828 242.251 435.84 234.766 425.624 228.231C424.954 227.784 424.284 227.449 423.558 227.169C408.429 219.908 393.412 214.266 378.394 210.58C362.93 206.782 347.578 205.106 332.449 205.944C325.135 206.335 319.497 212.535 319.888 219.852C320.278 227.169 326.475 232.811 333.789 232.42C346.35 231.75 359.134 233.146 372.142 236.33C385.093 239.514 398.38 244.485 411.89 250.964C420.097 256.271 427.243 262.192 433.328 268.671C439.58 275.318 444.884 282.579 449.294 290.511C470.173 327.712 468.052 358.321 465.372 396.304C464.982 401.889 464.591 407.698 464.144 415.183C462.693 440.542 462.19 464.561 462.804 486.847C463.53 509.525 465.317 530.081 468.555 548.234ZM281.59 248.618C287.843 244.82 289.797 236.609 286.001 230.409C282.205 224.153 274.054 222.198 267.801 225.996C263.726 228.51 259.762 231.191 255.91 234.096C252.114 236.944 248.374 240.072 244.633 243.48C194.054 289.45 176.915 363.348 175.799 440.654C174.738 515.949 188.862 594.483 201.814 652.407C203.377 659.556 210.467 664.081 217.613 662.461C224.759 660.897 229.281 653.803 227.662 646.654C215.045 590.127 201.2 513.659 202.261 440.933C203.265 370.219 218.339 303.246 262.498 263.085C265.568 260.292 268.75 257.667 271.932 255.265C275.115 252.752 278.353 250.573 281.59 248.618ZM445.107 668.549C449.35 674.526 457.612 675.978 463.586 671.733C469.559 667.488 471.011 659.221 466.768 653.245C457.389 640.007 449.462 625.484 442.986 609.732C436.51 593.869 431.486 576.609 428.024 557.953C421.548 523.154 424.619 478.804 427.578 436.911C428.582 422.78 429.532 408.983 430.146 394.795C431.039 374.073 431.43 353.741 427.578 335.252C423.391 315.088 414.347 297.605 396.203 284.869C392.128 282.021 387.717 279.451 382.972 277.273C378.227 275.094 373.091 273.139 367.564 271.576C363.433 270.403 359.357 269.453 355.394 268.783C328.206 264.147 306.657 271.185 290.02 285.707C274.221 299.504 263.503 319.836 256.915 342.905C254.961 349.831 253.342 357.036 252.058 364.409C251.388 368.431 250.774 372.509 250.327 376.586C249.881 380.608 249.49 384.741 249.211 388.986C246.42 431.102 248.262 483.664 253.956 535.108C259.427 584.429 268.471 633.025 280.474 670.84C282.707 677.822 290.132 681.676 297.11 679.497C304.089 677.263 307.941 669.834 305.763 662.852C294.375 626.936 285.722 580.128 280.418 532.259C274.891 482.267 273.105 431.382 275.784 390.718C276.008 387.199 276.343 383.512 276.789 379.714C277.18 376.139 277.738 372.565 278.353 369.046C279.469 362.678 280.865 356.422 282.54 350.334C287.787 331.845 295.938 315.982 307.55 305.872C318.269 296.543 332.505 292.075 350.927 295.203C353.886 295.706 357.013 296.432 360.306 297.381C364.605 298.61 368.457 300.007 371.862 301.626C375.324 303.246 378.394 304.978 381.018 306.821C392.686 314.976 398.659 326.874 401.562 340.838C404.8 356.422 404.409 374.911 403.628 393.846C403.07 406.414 402.065 420.713 401.06 435.348C398.045 478.804 394.807 524.774 401.953 562.98C405.749 583.368 411.276 602.303 418.478 619.954C425.624 637.381 434.556 653.636 445.107 668.549ZM354.165 347.15C355.505 339.944 350.704 333.018 343.502 331.733C336.301 330.393 329.378 335.196 328.094 342.402C321.339 378.82 318.101 415.63 317.99 452.607C317.878 489.417 320.893 526.394 326.587 563.427C327.703 570.633 334.458 575.604 341.716 574.487C348.918 573.37 353.886 566.611 352.77 559.349C347.243 523.713 344.34 488.076 344.451 452.607C344.563 417.25 347.689 382.06 354.165 347.15ZM369.35 604.984C367.787 597.835 360.697 593.31 353.551 594.93C346.405 596.494 341.883 603.588 343.502 610.738L355.114 663.075C356.678 670.225 363.768 674.75 370.913 673.13C378.059 671.566 382.581 664.472 380.962 657.322L369.35 604.984Z" fill="#3C64B1"/>
</g>
<defs>
<clipPath id="clip0_108_428">
<rect width="686" height="680" fill="white" transform="matrix(-1 0 0 1 686 0)"/>
</clipPath>
</defs>
</svg>
